<svg xmlns="http://www.w3.org/2000/svg" version="1.1" xmlns:xlink="http://www.w3.org/1999/xlink" xmlns:svgjs="http://svgjs.dev/svgjs" width="1440" height="560" preserveAspectRatio="none" viewBox="0 0 1440 560">
    <g mask="url(&quot;#SvgjsMask1010&quot;)" fill="none">
        <rect width="1440" height="560" x="0" y="0" fill="rgba(0, 112, 239, 1)"></rect>
        <path d="M1464 560L0 560 L0 341.69Q29.99 299.68, 72 329.66Q119.66 257.32, 192 304.98Q233.24 274.22, 264 315.46Q326.12 305.57, 336 367.69Q353.29 312.98, 408 330.26Q435.4 285.66, 480 313.06Q556.65 269.71, 600 346.36Q626.74 301.1, 672 327.84Q711.87 247.71, 792 287.58Q881.95 257.53, 912 347.48Q983.54 299.02, 1032 370.57Q1068.62 287.19, 1152 323.81Q1195.38 295.19, 1224 338.57Q1258.77 253.34, 1344 288.11Q1419.52 243.63, 1464 319.15z" fill="rgba(1, 101, 214, 1)"></path>
        <path d="M1488 560L0 560 L0 410.83Q32.56 323.39, 120 355.96Q172.45 336.41, 192 388.87Q247.99 372.86, 264 428.84Q310.74 355.57, 384 402.31Q424.93 323.24, 504 364.17Q549.43 337.61, 576 383.04Q659.22 346.26, 696 429.48Q722.99 384.47, 768 411.46Q779.23 350.69, 840 361.92Q912.4 314.33, 960 386.73Q1023.55 378.28, 1032 441.84Q1057.17 395.01, 1104 420.19Q1110.86 355.04, 1176 361.9Q1247.13 313.03, 1296 384.16Q1350.34 318.5, 1416 372.84Q1462.97 347.81, 1488 394.79z" fill="rgba(33, 129, 238, 1)"></path>
        <path d="M1536 560L0 560 L0 484.51Q28.52 441.03, 72 469.56Q113.14 390.7, 192 431.84Q233.19 401.03, 264 442.22Q317.71 423.94, 336 477.65Q383.33 404.98, 456 452.31Q510.51 386.82, 576 441.33Q601.67 395, 648 420.68Q736.19 388.88, 768 477.07Q789.97 427.04, 840 449.02Q925.86 414.88, 960 500.74Q962.13 430.87, 1032 433Q1062.75 391.75, 1104 422.49Q1206.74 405.23, 1224 507.96Q1247.66 411.63, 1344 435.29Q1385.24 404.53, 1416 445.78Q1486.74 396.52, 1536 467.27z" fill="rgba(107, 176, 255, 1)"></path>
        <path d="M1488 560L0 560 L0 521.03Q59.63 460.66, 120 520.29Q176.73 505.01, 192 561.74Q235.58 533.32, 264 576.89Q276.46 517.35, 336 529.81Q359.01 480.82, 408 503.84Q501.07 476.91, 528 569.99Q539.86 509.85, 600 521.71Q648.27 449.99, 720 498.26Q786.33 444.59, 840 510.91Q902.4 501.32, 912 563.72Q966.65 498.38, 1032 553.03Q1054.26 503.29, 1104 525.55Q1125.64 475.19, 1176 496.83Q1267.77 468.6, 1296 560.37Q1342.16 486.54, 1416 532.7Q1444.17 488.88, 1488 517.05z" fill="white"></path>
    </g>
    <defs>
        <mask id="SvgjsMask1010">
            <rect width="1440" height="560" fill="#ffffff"></rect>
        </mask>
    </defs>
</svg>