<svg xmlns="http://www.w3.org/2000/svg" version="1.1" xmlns:xlink="http://www.w3.org/1999/xlink" xmlns:svgjs="http://svgjs.dev/svgjs" width="1920" height="1080" preserveAspectRatio="none" viewBox="0 0 1440 560">
    <g mask="url(&quot;#SvgjsMask1074&quot;)" fill="none">
        <rect width="1920" height="1080" x="0" y="0" fill="rgba(35, 129, 255, 1)"></rect>
        <path d="M0,480.114C93.521,498.478,209.016,496.867,275.316,428.4C342.791,358.721,304.576,242.568,322.363,147.218C335.103,78.92,358.455,16.683,365.021,-52.482C373.545,-142.267,418.671,-244.004,366.488,-317.564C314.841,-390.368,206.841,-395.404,117.756,-401.041C40.95,-405.901,-29.571,-373.365,-101.949,-347.207C-169.808,-322.682,-234.841,-297.08,-291.944,-252.971C-360.357,-200.126,-438.554,-149.175,-464.905,-66.843C-492.677,19.927,-485.279,122.352,-436.748,199.456C-389.676,274.242,-287.958,284.622,-213.617,332.394C-139.28,380.163,-86.706,463.089,0,480.114" fill="#0063e8"></path>
        <path d="M1440 1009.927C1534.608 1031.401 1645.873 1059.6100000000001 1725.076 1003.587 1804.429 947.4590000000001 1795.761 828.721 1826.531 736.523 1853.6109999999999 655.383 1894.039 580.123 1894.949 494.58799999999997 1895.968 398.852 1899.924 287.806 1832.024 220.30900000000003 1764.205 152.89299999999997 1649.33 186.50900000000001 1557.657 159.298 1465.601 131.974 1389.095 53.666 1293.306 60.406000000000006 1189.9470000000001 67.678 1075.7730000000001 109.012 1021.13 197.04700000000003 966.827 284.535 1028.622 397.044 1020.637 499.705 1013.367 593.177 932.586 688.835 976.435 771.703 1020.643 855.249 1143.435 847.446 1227.505 890.649 1301.245 928.544 1359.15 991.576 1440 1009.927" fill="#5da2ff"></path>
    </g>
    <defs>
        <mask id="SvgjsMask1074">
            <rect width="1920" height="1080" fill="#ffffff"></rect>
        </mask>
    </defs>
</svg>