<svg width="26" height="26" viewBox="0 0 26 26" fill="none" xmlns="http://www.w3.org/2000/svg">
<path d="M11.7132 1.8359C12.2396 0.721368 13.7604 0.721366 14.2868 1.8359L16.8833 7.33397C17.0923 7.77655 17.4964 8.08332 17.9637 8.15429L23.7698 9.03594C24.9468 9.21467 25.4168 10.7262 24.5651 11.5937L20.3638 15.8734C20.0256 16.2179 19.8713 16.7142 19.9511 17.2007L20.9429 23.2436C21.1439 24.4686 19.9136 25.4028 18.8609 24.8244L13.6677 21.9713C13.2497 21.7416 12.7503 21.7416 12.3323 21.9713L7.13915 24.8244C6.08643 25.4028 4.85606 24.4686 5.05711 23.2436L6.04891 17.2007C6.12875 16.7142 5.97442 16.2179 5.63622 15.8734L1.4349 11.5937C0.583241 10.7262 1.0532 9.21467 2.23017 9.03594L8.03625 8.15429C8.50363 8.08332 8.90766 7.77655 9.11667 7.33397L11.7132 1.8359Z" fill="#D6DA25"/>
<path d="M8.03625 8.15429L7.96119 7.65995L7.96119 7.65995L8.03625 8.15429ZM9.11667 7.33397L8.66456 7.12045L8.66456 7.12045L9.11667 7.33397ZM1.4349 11.5937L1.0781 11.944L1.0781 11.944L1.4349 11.5937ZM2.23017 9.03594L2.30523 9.53028L2.30523 9.53028L2.23017 9.03594ZM6.04891 17.2007L6.54231 17.2816L6.54231 17.2816L6.04891 17.2007ZM5.63622 15.8734L5.99303 15.5231L5.99303 15.5231L5.63622 15.8734ZM7.13915 24.8244L7.3799 25.2626L7.3799 25.2626L7.13915 24.8244ZM5.05711 23.2436L4.56371 23.1627L4.56371 23.1627L5.05711 23.2436ZM13.6677 21.9713L13.427 22.4095L13.427 22.4095L13.6677 21.9713ZM12.3323 21.9713L12.0915 21.5331L12.0915 21.5331L12.3323 21.9713ZM20.9429 23.2436L20.4495 23.3246L20.4495 23.3246L20.9429 23.2436ZM18.8609 24.8244L19.1016 24.3862L19.1016 24.3862L18.8609 24.8244ZM20.3638 15.8734L20.007 15.5231L20.007 15.5231L20.3638 15.8734ZM19.9511 17.2007L20.4445 17.1197L20.4445 17.1197L19.9511 17.2007ZM23.7698 9.03594L23.8449 8.54161L23.7698 9.03594ZM24.5651 11.5937L24.9219 11.944L24.9219 11.944L24.5651 11.5937ZM16.8833 7.33397L16.4312 7.54749L16.4312 7.54749L16.8833 7.33397ZM17.9637 8.15429L17.8887 8.64862L17.9637 8.15429ZM14.2868 1.8359L14.7389 1.62238L14.7389 1.62238L14.2868 1.8359ZM11.7132 1.8359L12.1653 2.04942L12.1653 2.04942L11.7132 1.8359ZM8.62565 12.5322C8.62565 12.8083 8.84951 13.0322 9.12565 13.0322C9.40179 13.0322 9.62565 12.8083 9.62565 12.5322H8.62565ZM9.62565 11.0326C9.62565 10.7565 9.40179 10.5326 9.12565 10.5326C8.84951 10.5326 8.62565 10.7565 8.62565 11.0326H9.62565ZM16.3743 12.5322C16.3743 12.8083 16.5982 13.0322 16.8743 13.0322C17.1505 13.0322 17.3743 12.8083 17.3743 12.5322H16.3743ZM17.3743 11.0326C17.3743 10.7565 17.1505 10.5326 16.8743 10.5326C16.5982 10.5326 16.3743 10.7565 16.3743 11.0326H17.3743ZM12.3116 12.2166C12.1373 12.0024 11.8224 11.9701 11.6082 12.1444C11.394 12.3186 11.3617 12.6336 11.536 12.8478L12.3116 12.2166ZM11.942 12.5546L11.5542 12.8702L11.5542 12.8702L11.942 12.5546ZM14.4702 12.84C14.6402 12.6224 14.6016 12.3082 14.384 12.1382C14.1664 11.9682 13.8522 12.0068 13.6822 12.2244L14.4702 12.84ZM13.8346 2.04942L16.4312 7.54749L17.3354 7.12045L14.7389 1.62238L13.8346 2.04942ZM17.8887 8.64862L23.6948 9.53028L23.8449 8.54161L18.0388 7.65995L17.8887 8.64862ZM24.2083 11.2434L20.007 15.5231L20.7206 16.2236L24.9219 11.944L24.2083 11.2434ZM19.4577 17.2816L20.4495 23.3246L21.4363 23.1626L20.4445 17.1197L19.4577 17.2816ZM19.1016 24.3862L13.9085 21.5331L13.427 22.4095L18.6201 25.2626L19.1016 24.3862ZM12.0915 21.5331L6.89839 24.3862L7.3799 25.2626L12.573 22.4095L12.0915 21.5331ZM5.55051 23.3246L6.54231 17.2816L5.55551 17.1197L4.56371 23.1627L5.55051 23.3246ZM5.99303 15.5231L1.79171 11.2434L1.0781 11.944L5.27942 16.2236L5.99303 15.5231ZM2.30523 9.53028L8.11132 8.64862L7.96119 7.65995L2.1551 8.54161L2.30523 9.53028ZM9.56879 7.54749L12.1653 2.04942L11.2611 1.62238L8.66456 7.12045L9.56879 7.54749ZM8.11132 8.64862C8.75014 8.55161 9.29169 8.13424 9.56879 7.54749L8.66456 7.12045C8.52362 7.41887 8.25711 7.61502 7.96119 7.65995L8.11132 8.64862ZM1.79171 11.2434C1.20462 10.6454 1.56107 9.64328 2.30523 9.53028L2.1551 8.54161C0.545323 8.78606 -0.0381387 10.8069 1.0781 11.944L1.79171 11.2434ZM6.54231 17.2816C6.64732 16.6418 6.44566 15.9842 5.99303 15.5231L5.27942 16.2236C5.50318 16.4516 5.61017 16.7866 5.55551 17.1197L6.54231 17.2816ZM6.89839 24.3862C6.25598 24.7391 5.40858 24.1894 5.55051 23.3246L4.56371 23.1627C4.30355 24.7478 5.91689 26.0664 7.3799 25.2626L6.89839 24.3862ZM13.9085 21.5331C13.3405 21.2211 12.6595 21.2211 12.0915 21.5331L12.573 22.4095C12.8411 22.2622 13.1589 22.2622 13.427 22.4095L13.9085 21.5331ZM20.4495 23.3246C20.5914 24.1894 19.744 24.7391 19.1016 24.3862L18.6201 25.2626C20.0831 26.0664 21.6965 24.7478 21.4363 23.1626L20.4495 23.3246ZM20.007 15.5231C19.5543 15.9842 19.3527 16.6418 19.4577 17.2816L20.4445 17.1197C20.3898 16.7866 20.4968 16.4516 20.7206 16.2236L20.007 15.5231ZM23.6948 9.53028C24.4389 9.64328 24.7954 10.6454 24.2083 11.2434L24.9219 11.944C26.0381 10.8069 25.4547 8.78606 23.8449 8.54161L23.6948 9.53028ZM16.4312 7.54749C16.7083 8.13424 17.2499 8.55161 17.8887 8.64862L18.0388 7.65995C17.7429 7.61502 17.4764 7.41887 17.3354 7.12045L16.4312 7.54749ZM14.7389 1.62238C14.0321 0.125871 11.9679 0.125876 11.2611 1.62238L12.1653 2.04942C12.5113 1.31686 13.4887 1.31686 13.8346 2.04942L14.7389 1.62238ZM9.62565 12.5322V11.0326H8.62565V12.5322H9.62565ZM17.3743 12.5322V11.0326H16.3743V12.5322H17.3743ZM11.536 12.8478L11.5542 12.8702L12.3298 12.239L12.3116 12.2166L11.536 12.8478ZM11.5542 12.8702C12.3192 13.8103 13.7243 13.7949 14.4702 12.84L13.6822 12.2244C13.3309 12.6741 12.6888 12.6802 12.3298 12.239L11.5542 12.8702Z" fill="black"/>
</svg>
